<svg width="118" height="35" viewBox="0 0 118 35" fill="none" xmlns="http://www.w3.org/2000/svg">
<path d="M6.344 22.576C6.344 24.592 6.712 26.24 7.448 27.52C8.216 28.8 9.432 29.44 11.096 29.44C11.576 29.44 12.024 29.424 12.44 29.392C12.856 29.36 13.288 29.312 13.736 29.248V16.96C13.288 16.704 12.776 16.496 12.2 16.336C11.624 16.144 11.016 16.048 10.376 16.048C8.968 16.048 7.944 16.608 7.304 17.728C6.664 18.848 6.344 20.464 6.344 22.576ZM19.64 33.328C18.552 33.68 17.224 33.968 15.656 34.192C14.088 34.416 12.552 34.528 11.048 34.528C7.528 34.528 4.856 33.488 3.032 31.408C1.24 29.328 0.344 26.48 0.344 22.864C0.344 19.184 1.096 16.288 2.6 14.176C4.136 12.032 6.392 10.96 9.368 10.96C10.168 10.96 10.952 11.056 11.72 11.248C12.488 11.408 13.16 11.648 13.736 11.968V1.696L19.64 0.688V33.328ZM43.976 17.44C43.592 17.344 43.128 17.248 42.584 17.152C42.072 17.056 41.544 16.976 41 16.912C40.456 16.816 39.928 16.752 39.416 16.72C38.904 16.688 38.472 16.672 38.12 16.672C37.288 16.672 36.472 16.72 35.672 16.816C34.872 16.88 34.056 17.024 33.224 17.248V34H27.272V12.928C28.84 12.352 30.44 11.888 32.072 11.536C33.736 11.184 35.672 11.008 37.88 11.008C38.2 11.008 38.648 11.024 39.224 11.056C39.832 11.088 40.472 11.152 41.144 11.248C41.816 11.312 42.488 11.408 43.16 11.536C43.864 11.632 44.488 11.776 45.032 11.968L43.976 17.44ZM60.632 4.96C60.632 6.112 60.264 7.024 59.528 7.696C58.792 8.368 57.912 8.704 56.888 8.704C55.864 8.704 54.984 8.368 54.248 7.696C53.544 7.024 53.192 6.112 53.192 4.96C53.192 3.776 53.544 2.848 54.248 2.176C54.984 1.504 55.864 1.168 56.888 1.168C57.912 1.168 58.792 1.504 59.528 2.176C60.264 2.848 60.632 3.776 60.632 4.96ZM69.416 33.04C68.2 33.616 67.048 34 65.96 34.192C64.904 34.416 63.928 34.528 63.032 34.528C61.496 34.528 60.2 34.304 59.144 33.856C58.12 33.408 57.288 32.768 56.648 31.936C56.04 31.072 55.608 30.032 55.352 28.816C55.096 27.6 54.968 26.208 54.968 24.64V16.336H48.728V11.44H60.872V25.408C60.872 26.752 61.112 27.76 61.592 28.432C62.104 29.072 62.936 29.392 64.088 29.392C64.632 29.392 65.288 29.328 66.056 29.2C66.824 29.04 67.688 28.736 68.648 28.288L69.416 33.04ZM77.672 34V16.336H72.728V11.44H77.672V10.144C77.672 8.32 77.928 6.816 78.44 5.632C78.984 4.416 79.704 3.456 80.6 2.752C81.496 2.016 82.52 1.504 83.672 1.216C84.824 0.895999 86.008 0.735999 87.224 0.735999C88.472 0.735999 89.752 0.847999 91.064 1.072C92.376 1.296 93.56 1.664 94.616 2.176L93.608 6.976C92.872 6.72 91.944 6.464 90.824 6.208C89.736 5.92 88.696 5.776 87.704 5.776C87.16 5.776 86.632 5.824 86.12 5.92C85.64 6.016 85.208 6.224 84.824 6.544C84.472 6.864 84.184 7.328 83.96 7.936C83.736 8.512 83.624 9.28 83.624 10.24V11.44H92.888V16.336H83.624V34H77.672ZM101.864 16.336H96.728V11.44H101.864V5.776L107.768 4.816V11.44H117.224V16.336H107.768V25.456C107.768 26.288 107.848 26.96 108.008 27.472C108.168 27.984 108.392 28.384 108.68 28.672C108.968 28.96 109.32 29.152 109.736 29.248C110.152 29.344 110.616 29.392 111.128 29.392C111.672 29.392 112.168 29.376 112.616 29.344C113.096 29.312 113.544 29.264 113.96 29.2C114.408 29.104 114.856 28.976 115.304 28.816C115.784 28.656 116.296 28.448 116.84 28.192L117.656 33.28C116.568 33.728 115.384 34.048 114.104 34.24C112.856 34.432 111.64 34.528 110.456 34.528C109.08 34.528 107.864 34.416 106.808 34.192C105.752 33.968 104.856 33.536 104.12 32.896C103.384 32.256 102.824 31.36 102.44 30.208C102.056 29.024 101.864 27.488 101.864 25.6V16.336Z" fill="#20C20E"/>
</svg>
