<svg width="60" height="18" viewBox="0 0 60 18" fill="none" xmlns="http://www.w3.org/2000/svg">
<path d="M3.672 11.288C3.672 12.296 3.856 13.12 4.224 13.76C4.608 14.4 5.216 14.72 6.048 14.72C6.288 14.72 6.512 14.712 6.72 14.696C6.928 14.68 7.144 14.656 7.368 14.624V8.48C7.144 8.352 6.888 8.248 6.6 8.168C6.312 8.072 6.008 8.024 5.688 8.024C4.984 8.024 4.472 8.304 4.152 8.864C3.832 9.424 3.672 10.232 3.672 11.288ZM10.32 16.664C9.776 16.84 9.112 16.984 8.328 17.096C7.544 17.208 6.776 17.264 6.024 17.264C4.264 17.264 2.928 16.744 2.016 15.704C1.12 14.664 0.672 13.24 0.672 11.432C0.672 9.592 1.048 8.144 1.8 7.088C2.568 6.016 3.696 5.48 5.184 5.48C5.584 5.48 5.976 5.528 6.36 5.624C6.744 5.704 7.08 5.824 7.368 5.984V0.847999L10.32 0.344V16.664ZM22.488 8.72C22.296 8.672 22.064 8.624 21.792 8.576C21.536 8.528 21.272 8.488 21 8.456C20.728 8.408 20.464 8.376 20.208 8.36C19.952 8.344 19.736 8.336 19.56 8.336C19.144 8.336 18.736 8.36 18.336 8.408C17.936 8.44 17.528 8.512 17.112 8.624V17H14.136V6.464C14.92 6.176 15.72 5.944 16.536 5.768C17.368 5.592 18.336 5.504 19.44 5.504C19.6 5.504 19.824 5.512 20.112 5.528C20.416 5.544 20.736 5.576 21.072 5.624C21.408 5.656 21.744 5.704 22.08 5.768C22.432 5.816 22.744 5.888 23.016 5.984L22.488 8.72ZM30.816 2.48C30.816 3.056 30.632 3.512 30.264 3.848C29.896 4.184 29.456 4.352 28.944 4.352C28.432 4.352 27.992 4.184 27.624 3.848C27.272 3.512 27.096 3.056 27.096 2.48C27.096 1.888 27.272 1.424 27.624 1.088C27.992 0.751999 28.432 0.584 28.944 0.584C29.456 0.584 29.896 0.751999 30.264 1.088C30.632 1.424 30.816 1.888 30.816 2.48ZM35.208 16.52C34.6 16.808 34.024 17 33.48 17.096C32.952 17.208 32.464 17.264 32.016 17.264C31.248 17.264 30.6 17.152 30.072 16.928C29.56 16.704 29.144 16.384 28.824 15.968C28.52 15.536 28.304 15.016 28.176 14.408C28.048 13.8 27.984 13.104 27.984 12.32V8.168H24.864V5.72H30.936V12.704C30.936 13.376 31.056 13.88 31.296 14.216C31.552 14.536 31.968 14.696 32.544 14.696C32.816 14.696 33.144 14.664 33.528 14.6C33.912 14.52 34.344 14.368 34.824 14.144L35.208 16.52ZM39.336 17V8.168H36.864V5.72H39.336V5.072C39.336 4.16 39.464 3.408 39.72 2.816C39.992 2.208 40.352 1.728 40.8 1.376C41.248 1.008 41.76 0.751999 42.336 0.607999C42.912 0.447999 43.504 0.368 44.112 0.368C44.736 0.368 45.376 0.423999 46.032 0.535999C46.688 0.647999 47.28 0.831999 47.808 1.088L47.304 3.488C46.936 3.36 46.472 3.232 45.912 3.104C45.368 2.96 44.848 2.888 44.352 2.888C44.08 2.888 43.816 2.912 43.56 2.96C43.32 3.008 43.104 3.112 42.912 3.272C42.736 3.432 42.592 3.664 42.48 3.968C42.368 4.256 42.312 4.64 42.312 5.12V5.72H46.944V8.168H42.312V17H39.336ZM51.432 8.168H48.864V5.72H51.432V2.888L54.384 2.408V5.72H59.112V8.168H54.384V12.728C54.384 13.144 54.424 13.48 54.504 13.736C54.584 13.992 54.696 14.192 54.84 14.336C54.984 14.48 55.16 14.576 55.368 14.624C55.576 14.672 55.808 14.696 56.064 14.696C56.336 14.696 56.584 14.688 56.808 14.672C57.048 14.656 57.272 14.632 57.48 14.6C57.704 14.552 57.928 14.488 58.152 14.408C58.392 14.328 58.648 14.224 58.92 14.096L59.328 16.64C58.784 16.864 58.192 17.024 57.552 17.12C56.928 17.216 56.32 17.264 55.728 17.264C55.04 17.264 54.432 17.208 53.904 17.096C53.376 16.984 52.928 16.768 52.56 16.448C52.192 16.128 51.912 15.68 51.72 15.104C51.528 14.512 51.432 13.744 51.432 12.8V8.168Z" fill="#20C20E"/>
</svg>
